<svg xmlns="http://www.w3.org/2000/svg" version="1.1" xmlns:xlink="http://www.w3.org/1999/xlink" xmlns:svgjs="http://svgjs.dev/svgjs" width="100%" height="100%" viewBox="0 0 1000 600"><rect width="1000" height="600" x="0" y="0" fill="#d3d3d3"/><g><circle r="166.66666666666666" cx="382.42646280924475" cy="329.38570249921503" fill="#d3d3d3" transform="matrix(0.8897000809838576,0,0,0.8897000809838576,-7.385845731528505,6.94553763456409)"/><path d="M263.97127774983807 333.08062761037695L263.97127774983807 333.08062761037695Q269.0813406633531 333.08062761037695 269.0813406633531 341.6891182108368Q269.0813406633531 350.33691698755456 264.6788249224786 360.2425774045222Q260.3156173578619 370.14823782148983 251.39266134733953 379.34635106581686Q242.46970533681713 388.5444643101439 228.5939191178109 395.0696215689401Q214.7574410750625 401.55547065147834 195.9288246475725 401.55547065147834Q177.1002082200825 401.55547065147834 162.94926476727164 390.39194859426095Q148.79832131446076 379.18911836078564 148.79832131446076 358.1199358866006Q148.79832131446076 337.0507534124155 155.4414031020303 319.9123885640113Q162.08448488959985 302.774023715607 173.01215788927044 290.3526400181397Q183.90052271268326 277.8919481444145 197.77630893168947 270.93440094678255Q211.61278697443788 264.0161619254083 224.073478848163 264.0161619254083L224.073478848163 264.0161619254083Q245.8895166712464 264.0161619254083 245.8895166712464 281.272451302586L245.8895166712464 281.272451302586Q245.8895166712464 291.1781117195536 241.76215816417658 297.1136463344826Q237.67410783336453 303.0884891256694 233.4288247975213 303.0884891256694L233.4288247975213 303.0884891256694Q227.76844741639695 303.0884891256694 223.52316438055368 299.1183633236309Q219.27788134471044 295.14823752159225 214.16781843119537 294.99100481656103Q209.09706369393817 294.8730802877876 204.419390719259 299.9438350250448Q199.7417177445799 305.05389793855977 196.63637182021304 312.99414954263705L196.63637182021304 312.99414954263705Q190.38637179522158 328.8353445745337 190.38637179522158 350.0617597537499L190.38637179522158 350.0617597537499Q190.70083720528405 360.2425774045222 199.7417177445799 365.3526403180373L199.7417177445799 365.3526403180373Q205.95240959331352 368.73314347620874 214.44297566500006 368.89037618123996Q222.93354173668658 369.0083007100134 230.71656063573255 363.347923328889Q238.49957953477852 357.68754594776465 245.02473679357465 351.04446416019516Q251.54989405237075 344.40138237262556 256.50272426085456 338.7410049915012Q261.4555544693384 333.08062761037695 263.97127774983807 333.08062761037695ZM410.0404607238525 313.81962124405095L410.0404607238525 313.81962124405095Q410.0404607238525 304.5035834709505 399.2700204292131 304.5035834709505L399.2700204292131 304.5035834709505Q391.91939146900296 304.5035834709505 382.83920275344934 318.7724514525348Q373.7983222141535 333.08062761037695 369.82819641211495 349.47213710988285L369.82819641211495 349.47213710988285L369.82819641211495 350.0617597537499Q369.82819641211495 359.6922629369129 372.81561780770835 369.8730805876852Q375.76373102704395 380.05389823845746 375.76373102704395 384.024024040496L375.76373102704395 384.024024040496Q375.76373102704395 393.654527223659 351.7071271572654 402.97056499675944L351.7071271572654 402.97056499675944Q348.0514667652893 404.3856593420405 345.22127807472714 404.3856593420405L345.22127807472714 404.3856593420405Q338.1458063483217 404.3856593420405 335.4335421865329 397.03503038183044Q332.760586201002 389.68440142162035 332.760586201002 377.06647684286395Q332.760586201002 364.48786044036547 333.46813337364256 353.32433838314796Q334.1756805462831 342.12150814967276 334.88322771892365 332.648237671541Q335.59077489156414 323.1749671934093 336.29832206420474 315.94226276197264Q337.0058692368453 308.7488665067938 337.0058692368453 304.18911806088806L337.0058692368453 304.18911806088806Q337.0058692368453 294.59792305398287 328.2401459313541 294.59792305398287Q319.47442262586287 294.59792305398287 307.83920245355176 315.1167910605586Q296.24329045749846 335.6356590671344 296.24329045749846 347.6639610020236Q296.24329045749846 359.6922629369129 299.2307118530918 369.8730805876852Q302.1788250724274 380.05389823845746 302.1788250724274 384.024024040496L302.1788250724274 384.024024040496Q302.1788250724274 393.654527223659 278.1222212026489 402.97056499675944L278.1222212026489 402.97056499675944Q274.4665608106728 404.3856593420405 271.6363721201106 404.3856593420405L271.6363721201106 404.3856593420405Q264.5609003937052 404.3856593420405 261.84863623191643 397.03503038183044Q259.17568024638547 389.68440142162035 259.17568024638547 374.3935208573331L259.17568024638547 374.3935208573331Q259.17568024638547 334.2205647218533 262.28102617075234 316.3746527008085L262.28102617075234 316.3746527008085Q266.5263092065956 290.03817460807716 281.5420325370782 266.57119338216586L281.5420325370782 266.57119338216586Q286.61278727433546 258.63094177808864 292.58763006552226 258.63094177808864L292.58763006552226 258.63094177808864Q301.90366783862277 258.63094177808864 309.8439194426999 273.9218223423759L309.8439194426999 273.9218223423759Q312.084485489395 277.8919481444145 313.22442260087143 281.272451302586L313.22442260087143 281.272451302586Q326.82505158607296 264.291319159213 345.22127807472714 264.291319159213L345.22127807472714 264.291319159213Q357.36750453838977 264.291319159213 366.99800772155277 272.3494952920636Q376.62851090471565 280.4469796011721 376.62851090471565 292.5932060648347L376.62851090471565 292.5932060648347L376.62851090471565 295.6985519892015Q393.8848002818934 274.1969795761806 418.80618402934357 274.1969795761806L418.80618402934357 274.1969795761806Q434.09706459363093 274.1969795761806 441.99800802145035 282.1372311802578Q449.9382596255275 290.03817460807716 449.9382596255275 301.6733947803883Q449.9382596255275 313.2693067764417 448.24800804644184 322.5853445495421Q446.51844829109825 331.9406904989005 444.3958067731766 340.1560993367823Q442.2731652552549 348.3715081746642 440.58291367616926 354.73943272842905Q438.8926620970835 361.107357282194 438.8926620970835 364.6450931453967Q438.8926620970835 368.18282900859936 441.17253632003633 368.18282900859936L441.17253632003633 368.18282900859936Q445.4178193558796 368.18282900859936 451.6285112046133 362.79760886127974Q457.8392030533469 357.41238871396 464.0892030783384 351.04446416019516Q470.2998949270721 344.6765396064302 475.52788236936044 339.2913194591106Q480.79517798790675 333.90609931179085 482.7605868007971 333.90609931179085L482.7605868007971 333.90609931179085Q486.73071260283575 333.90609931179085 486.73071260283575 343.53660249495385L486.73071260283575 343.53660249495385Q486.73071260283575 363.347923328889 466.7621590638693 382.0193070513478Q446.8329137011607 400.72999895006444 424.1914041766633 400.72999895006444L424.1914041766633 400.72999895006444Q403.790460698861 400.72999895006444 403.790460698861 363.62308056269364L403.790460698861 363.62308056269364Q403.790460698861 354.3070427895932 406.89580662322777 337.8762251138295Q410.0404607238525 321.4847156143236 410.0404607238525 313.81962124405095ZM513.892662396981 352.30232580044503L513.892662396981 352.30232580044503L515.5829139760668 386.85421273105817Q515.5829139760668 393.654527223659 508.5074422496614 399.0004391947208Q501.4319705232559 404.3856593420405 489.2857440595933 404.3856593420405L489.2857440595933 404.3856593420405Q482.21027233318785 404.3856593420405 479.4980081713991 397.03503038183044Q476.8250521858681 389.68440142162035 476.8250521858681 375.53345796880944L476.8250521858681 375.53345796880944Q476.8250521858681 345.81647671790665 479.7731654052037 328.9532691033071Q482.7605868007971 312.1293696649652 491.5263101062883 294.8730802877876L491.5263101062883 294.8730802877876Q478.51530376495384 282.41238841406243 478.51530376495384 273.3715078747666L478.51530376495384 273.3715078747666Q478.51530376495384 254.3856587422454 498.8769390664984 254.3856587422454L498.8769390664984 254.3856587422454Q509.3722221273331 254.3856587422454 517.2731655551526 265.4312562706894L517.2731655551526 265.4312562706894Q522.9335429362769 273.0570424647042 525.4885743930344 283.27716829173426L525.4885743930344 283.27716829173426Q529.458700195073 284.69226263701535 535.394234810002 284.69226263701535L535.394234810002 284.69226263701535Q543.6096436478838 284.69226263701535 554.3800839425232 279.3070424896956L554.3800839425232 279.3070424896956L561.7307129027333 275.6120739214617Q565.1112160609048 273.9218223423759 567.6662475176623 273.9218223423759L567.6662475176623 273.9218223423759Q575.8816563555442 273.9218223423759 584.097065193426 297.97842621215443L584.097065193426 297.97842621215443Q581.5420337366686 309.0240237405984 578.5546123410751 319.2048413913707Q575.6064991217395 329.38565904214295 571.636373319701 343.8117597287585Q567.6662475176623 358.27716859163183 567.5090148126311 363.2299988001156Q567.3910902838577 368.18282900859936 570.4964362082245 368.18282900859936L570.4964362082245 368.18282900859936Q574.7417192440678 368.18282900859936 580.9524110928014 362.79760886127974Q587.2024111177928 357.41238871396 593.4131029665265 351.04446416019516Q599.663102991518 344.6765396064302 604.8910904338064 339.2913194591106Q610.1190778760949 333.90609931179085 612.0844866889853 333.90609931179085L612.0844866889853 333.90609931179085Q616.0546124910239 333.90609931179085 616.0546124910239 343.53660249495385L616.0546124910239 343.53660249495385Q616.0546124910239 363.0727660950844 598.9555558188774 382.0193070513478Q581.8171909704732 401.0051561838691 559.7259959135852 400.72999895006444L559.7259959135852 400.72999895006444Q546.7149895722507 400.72999895006444 540.2291404897123 390.2347158892296Q533.7039832309163 379.7787410046527 533.4288259971116 364.7630176741701L533.4288259971116 364.7630176741701Q533.4288259971116 335.0460364232673 546.7149895722507 308.43440109673134L546.7149895722507 308.43440109673134Q540.504297723517 310.9894325534889 532.721278824471 310.9894325534889Q524.9382599254251 310.9894325534889 521.5184485909958 310.4391180858795L521.5184485909958 310.4391180858795Q519.0027253104961 321.17025020426104 516.4476938537385 332.0979232039317Q513.892662396981 342.9862880273445 513.892662396981 352.30232580044503Z " fill="#8800ff" transform="matrix(0.8897000809838576,0,0,0.8897000809838576,-7.385845731528505,6.94553763456409)"/><path d="M735.8644284858909 300.2082867615169L735.8644284858909 300.2082867615169Q742.7039568621959 296.0095029320478 744.6052929359178 296.0095029320478L744.6052929359178 296.0095029320478Q747.8270012830576 296.0095029320478 747.8270012830576 299.4424708429344L747.8270012830576 299.4424708429344Q747.8270012830576 301.5286590349348 745.1862567362217 305.14647906410005Q742.5191047439174 308.7642990932652 738.1354687961698 312.3821191224305L738.1354687961698 312.3821191224305Q738.9012847147523 319.9874634173178 738.9012847147523 328.54347574906626Q738.9012847147523 337.0994880808146 737.9506166778913 346.6061684494239L737.9506166778913 346.6061684494239Q732.8275722570296 404.3856591341937 676.1571942819309 404.3856591341937L676.1571942819309 404.3856591341937Q658.4642058181303 404.3856591341937 644.7851490655202 394.13957029247035L644.7851490655202 394.13957029247035Q638.8962887260761 389.5710822264442 635.6481729334679 384.23677824183574Q632.4264645863282 378.92888170269555 632.4264645863282 374.83572765509984Q632.4264645863282 370.74257360750426 636.2291367337718 370.74257360750426Q640.0318088812155 370.74257360750426 643.7288512467858 373.1192436996565Q647.4523010578245 375.4959137918088 651.6246774418253 378.5327700206701L651.6246774418253 378.5327700206701Q662.2668779655739 386.1381143155576 672.935485934791 386.1381143155576L672.935485934791 386.1381143155576Q693.0843668271491 386.1381143155576 702.1949355137331 369.9767576889218L702.1949355137331 369.9767576889218Q709.8002798086204 357.06351685489415 709.8002798086204 332.71585213306696L709.8002798086204 332.71585213306696L709.8002798086204 331.5803319779276Q695.7515188194534 338.6047124725111 678.0585303556527 338.6047124725111Q660.3655418918521 338.6047124725111 648.7726733312425 328.43784596719286Q637.1798047706327 318.2709794618745 637.1798047706327 300.1026569796435Q637.1798047706327 281.96074194288065 652.2848635785342 269.6020574636886Q667.416329831904 257.24337298449655 687.7500628425405 257.24337298449655L687.7500628425405 257.24337298449655Q725.4070800804207 257.0321134207496 735.8644284858909 300.2082867615169ZM662.6629896475993 300.1026569796435Q662.6629896475993 309.13400332982224 668.2613680868915 315.1284934511398Q673.886153971652 321.1229835724573 685.8487267688187 321.1229835724573Q697.8377070114537 321.1229835724573 709.6154276903419 314.65315943270934L709.6154276903419 314.65315943270934Q708.664759653481 297.5411347692126 703.9114194691763 288.61541820090724L703.9114194691763 288.61541820090724Q697.4415953294283 276.62643795827216 683.5776864585398 276.62643795827216L683.5776864585398 276.62643795827216Q675.7874900453738 276.62643795827216 669.2120361237523 283.86207801660254Q662.6629896475993 291.0713106294646 662.6629896475993 300.1026569796435ZM780.7306783366331 293.3687583852119L780.7306783366331 293.3687583852119Q778.2483784626074 293.3687583852119 778.2483784626074 289.3548266740213Q778.2483784626074 285.367302408299 781.1003825731901 279.4784420688549Q783.9523866837729 273.58958172941084 789.2866906683815 268.6513894268277L789.2866906683815 268.6513894268277Q801.8302272658522 256.8472613024711 821.7150337035266 256.9528910843445Q841.5734326957327 257.0321134207496 852.8758193561904 265.79938531624487Q864.2046134621164 274.54024976627176 864.2046134621164 291.25616274774313L864.2046134621164 291.25616274774313Q864.2046134621164 311.98600744040505 852.3212630013549 334.7228179886623Q840.4379125405933 357.4332210914512 824.0917037956789 374.5452457549479L824.0917037956789 374.5452457549479Q836.2391287111241 380.8302177764174 845.0064006066193 380.8302177764174Q853.7472650566463 380.8302177764174 860.0058296326474 377.68773176568266Q866.2908016541169 374.5452457549479 870.7536599382695 368.7356077519089Q875.2165182224223 362.9523771943383 877.9892999966 362.9523771943383Q880.7356743253092 362.9523771943383 880.7356743253092 369.42220133408625L880.7356743253092 369.42220133408625Q880.7356743253092 382.3354421681139 868.3769898461172 391.47241830016617Q856.0183053669251 400.58298698675003 837.5859084300105 400.79424655049695L837.5859084300105 400.79424655049695Q829.5844524530976 400.79424655049695 822.3752198402356 397.7309828761672Q815.1395797819051 394.6941266473059 808.4849035238786 390.8914544998622L808.4849035238786 390.8914544998622Q796.892034963269 403.43499109733284 778.2483784626074 403.43499109733284L778.2483784626074 403.43499109733284Q766.4706577837192 403.43499109733284 760.951501680832 397.5461307578887Q755.4323455779451 391.6572704184447 755.4323455779451 381.9657379315569Q755.4323455779451 372.27420544466906 762.5623558544021 367.4152354784909Q769.692366130859 362.55626551231285 782.1566803919245 362.55626551231285Q794.62099465299 362.55626551231285 803.731563339574 365.61952918664247L803.731563339574 365.61952918664247L807.5342354870177 360.8661890023378Q834.3377926374022 320.54201977215337 834.3377926374022 293.5536105034904L834.3377926374022 293.5536105034904Q834.3377926374022 284.81274605346346 829.3996003348191 280.0594058691588Q824.4614080322359 275.30606568485416 817.1465456375004 275.30606568485416Q809.8316832427649 275.30606568485416 805.2631951767388 276.62643795827216L805.2631951767388 276.62643795827216Q797.4729987635728 278.897478268551 792.7196585792682 284.23178225315957L792.7196585792682 284.23178225315957Q786.0649823212417 293.3687583852119 780.7306783366331 293.3687583852119ZM791.7689905424072 380.8302177764174L791.7689905424072 380.8302177764174Q785.2991664026592 377.58210198380925 780.7306783366331 377.58210198380925L780.7306783366331 377.58210198380925Q778.0635263443289 377.58210198380925 775.9773381523285 379.00810403910066Q773.8911499603281 380.43410609439195 773.8911499603281 383.28611020497476L773.8911499603281 383.28611020497476Q773.8911499603281 386.1381143155576 776.082967934202 387.37926425257047Q778.2483784626074 388.62041418958336 780.5458262183546 388.62041418958336L780.5458262183546 388.62041418958336Q784.7182026023554 388.62041418958336 791.7689905424072 380.8302177764174ZM985.705270062037 315.4189753512917L985.705270062037 315.4189753512917Q991.7789825197597 315.7886795878487 991.7789825197597 318.82553581671004L991.7789825197597 318.82553581671004Q991.7789825197597 320.54201977215337 990.8283144828986 323.3940238827362Q989.8776464460377 326.246027993319 989.1118305274554 329.2828842221803L989.1118305274554 329.2828842221803Q987.6066061357589 335.56785624364977 982.4571542694289 335.56785624364977Q977.3341098485671 335.56785624364977 963.0740892956532 334.6171882067888L963.0740892956532 334.6171882067888Q950.3192931344357 377.39724986553074 950.3192931344357 395.8296468024454L950.3192931344357 395.8296468024454Q950.3192931344357 401.163950787054 942.7139488395483 401.163950787054L942.7139488395483 401.163950787054Q930.7513760423815 401.163950787054 926.367740094634 396.51624038462273Q922.0105115923548 391.8421225367232 922.0105115923548 380.14362419424003Q922.0105115923548 368.4715332972253 933.7882322712428 335.7527083619283L933.7882322712428 335.7527083619283Q924.096699784355 336.70337639878926 914.9597236523027 337.94452633580215Q905.8491549657189 339.18567627281493 900.3299988628318 339.18567627281493L900.3299988628318 339.18567627281493Q897.8476989888061 339.18567627281493 897.8476989888061 337.2843401990931L897.8476989888061 337.2843401990931Q898.0325511070846 330.2335522590412 910.6817174864286 324.34469191959715Q923.3308838657726 318.455831580153 941.3935765661304 315.97353170612723L941.3935765661304 315.97353170612723Q947.2824369055744 300.97410268009924 959.086565029931 273.95928596596787L959.086565029931 273.95928596596787Q953.3825568087655 273.4047296111323 947.0975847872959 273.4047296111323L947.0975847872959 273.4047296111323Q937.5909044186865 273.4047296111323 918.3926915631895 275.8606220396897Q899.1944787076923 278.3429219137155 893.6753226048053 278.3429219137155L893.6753226048053 278.3429219137155Q891.1930227307796 278.3429219137155 891.1930227307796 276.44158583999365L891.1930227307796 276.44158583999365Q891.1930227307796 273.0086179291069 894.9956948782233 269.1267234452581Q898.798367025667 265.218421515941 905.637895401972 261.7854536050543L905.637895401972 261.7854536050543Q921.2446956737722 254.18010931016684 943.6646168764091 254.3913688739137L943.6646168764091 254.3913688739137L982.0874500328719 254.94592522874927Q986.6559380988979 254.94592522874927 986.6559380988979 261.0460451319402L986.6559380988979 261.0460451319402Q986.6559380988979 264.6374577156371 985.1243062617331 268.6513894268277Q983.5926744245683 272.63891369254986 981.5064862325678 273.95928596596787L981.5064862325678 273.95928596596787L968.7780975168188 315.4189753512917Q977.1492577302886 315.4189753512917 985.705270062037 315.4189753512917Z " fill="#8800ff" transform="matrix(0.8897000809838576,0,0,0.8897000809838576,-7.385845731528505,6.94553763456409)"/></g></svg>