<svg xmlns="http://www.w3.org/2000/svg" version="1.1" xmlns:xlink="http://www.w3.org/1999/xlink" xmlns:svgjs="http://svgjs.dev/svgjs" width="100%" height="100%" viewBox="0 0 1000 600"><rect width="1000" height="600" x="0" y="0" fill="#d3d3d3"/><g><rect width="333.3333333333333" height="333.3333333333333" y="238.7052878260016" fill="#d3d3d3" transform="matrix(0.5774122420793306,0,0,0.5774122420793307,0,65.93324593308058)" x="216.4830627441406"/><path d="M348.50733327906886 445.9457134199622L348.50733327906886 445.9457134199622Q353.58749881946875 442.2436778931814 357.6678445460665 436.8932907814837Q361.74819027266426 431.542903669786 364.55849461416204 431.542903669786Q367.3958211127896 431.542903669786 367.3958211127896 440.0008388514091Q367.3958211127896 448.4587740330323 362.6128993008174 455.94391155798314Q357.856999645975 463.4560712400638 350.0746183925965 468.50921462333383L350.0746183925965 468.50921462333383Q334.1315456860225 479.02083374682076 312.3246648822848 479.02083374682076L312.3246648822848 479.02083374682076Q285.86997305222394 479.02083374682076 271.2780082021393 465.7799767532254Q256.6860433520546 452.53911975963007 256.6860433520546 429.0028208995861L256.6860433520546 429.0028208995861Q256.6860433520546 400.0080462993252 270.68352074528394 373.95868682621114L270.68352074528394 373.95868682621114Q275.358353928737 365.3926630160688 281.1951398687709 358.17774706241585L281.1951398687709 358.17774706241585Q276.73648394235613 352.9354485792373 274.0883125436371 347.20675126772255Q271.46716330204777 341.45103179907807 271.46716330204777 338.5326388290611L271.46716330204777 338.5326388290611Q271.46716330204777 333.29034034588256 275.358353928737 333.29034034588256L275.358353928737 333.29034034588256Q278.08759179884544 333.47949544579103 281.6004722257177 336.99237587266333L281.6004722257177 336.99237587266333L287.62641326566006 342.8291618126971Q289.95031877882167 345.1530673258588 292.4904015490216 346.7203524393864L292.4904015490216 346.7203524393864Q311.75719958255934 330.3719473758656 334.0234570575033 330.3719473758656Q356.28971453244736 330.3719473758656 362.91014302924503 342.8291618126971L362.91014302924503 342.8291618126971Q365.26107069953645 347.47697283902045 365.26107069953645 354.2865564357266L365.26107069953645 354.2865564357266Q365.26107069953645 364.60902045930504 356.28971453244736 371.60775915591967Q347.345380522488 378.6064978525344 332.2670168440672 378.6064978525344Q317.18865316564643 378.6064978525344 301.05642535916394 372.3914017126835L301.05642535916394 372.3914017126835Q287.22108090871325 395.9277005727275 287.22108090871325 421.6257720031544L287.22108090871325 421.6257720031544Q287.22108090871325 457.2139529430831 315.6483902092486 457.2139529430831L315.6483902092486 457.2139529430831Q333.1587480293502 457.2139529430831 348.50733327906886 445.9457134199622ZM310.3790695689402 360.3395196327987L310.3790695689402 360.3395196327987Q320.29620123557186 363.6362228026327 331.9697731156396 363.6362228026327Q343.6433449957073 363.6362228026327 343.6433449957073 357.20494940574355L343.6433449957073 357.20494940574355Q343.6433449957073 349.6387454094033 334.1315456860225 349.6387454094033L334.1315456860225 349.6387454094033Q321.0798437923357 349.6387454094033 310.3790695689402 360.3395196327987ZM506.31673091702163 431.542903669786L506.31673091702163 431.542903669786Q509.61343408685553 431.542903669786 509.61343408685553 440.4872376797453L509.61343408685553 440.4872376797453Q509.61343408685553 445.35122596310686 505.5330883602578 452.2688981883322Q501.4527426336601 459.15954825642774 494.91338060825177 464.9152677250722Q488.4010407399732 470.6439650365869 480.42950438668623 474.34600056336774Q472.45796803339925 478.04803609014846 465.2430520797463 478.04803609014846Q458.0551582832231 478.04803609014846 453.9748125566253 475.31879822004Q449.8944668300275 472.5895603499316 447.54353915973616 467.91472716647854L447.54353915973616 467.91472716647854Q444.2468359899022 461.29429866968087 442.112085576649 442.73007672151755Q439.9503130062662 424.1388326162245 437.815562593013 416.7617837197928L437.815562593013 416.7617837197928Q432.762419209743 415.7889860631205 428.9793172115729 412.7625044645844Q425.16919305627295 409.73602286604836 425.16919305627295 405.35843341102293Q425.16919305627295 400.98084395599756 429.16847231148137 399.0352486426529Q433.14072940956004 397.0896533293083 438.3019614213492 397.0896533293083Q443.4631934331384 397.0896533293083 447.54353915973616 399.62973609950825L447.54353915973616 399.62973609950825Q453.002014899953 395.14405801596365 456.40680669830607 389.03705050463196Q459.8115984966592 382.9030208361704 459.8115984966592 372.49949034120266Q459.8115984966592 362.0689376891051 452.8128598000445 355.85384154925424Q445.7870989463 349.6387454094033 432.2760203814068 349.6387454094033Q418.7649418165136 349.6387454094033 411.55002586286065 351.77349582265646Q404.36213206633744 353.9082462359096 399.2009000545482 356.44832900610953Q394.039668042759 358.96138961917967 390.0674109446804 361.09614003243274Q386.068131689472 363.2579126028157 382.55525126259977 363.2579126028157Q379.06939299285733 363.2579126028157 379.06939299285733 361.0150735610434Q379.06939299285733 358.77223451927114 382.77142851963805 353.71909113600105Q386.446441889289 348.66594775273103 393.661357842942 343.58578221233114L393.661357842942 343.58578221233114Q411.7391809627691 330.93941267559114 434.5188594231791 331.04750130411026Q457.27151572645926 331.1555899326294 472.05263567645244 339.69459158564194L472.05263567645244 339.69459158564194Q489.37383839664557 349.82790050931186 489.37383839664557 370.0674961995219L489.37383839664557 370.0674961995219Q489.56299349655404 386.79421146285966 480.6186594865947 397.8732958860721Q471.67432547663543 408.97940246641434 458.43346848304003 413.8433907497759L458.43346848304003 413.8433907497759Q461.351861453057 420.2476419895353 463.2163902950122 427.6517130430967Q465.05389697983776 435.02876193952847 466.8103371932738 441.27088023650913Q468.56677740671 447.48597637636 470.80961644848225 451.56632210295777Q473.02543333312474 455.6736899866853 476.24107003156934 455.6736899866853Q479.4567067300139 455.6736899866853 484.02345128494784 451.86356583138536Q488.5901958398817 448.0804638332153 493.0758739234263 443.59478574967073Q497.5615520069708 439.136129823256 501.15549890523243 435.3260056679561Q504.749445803494 431.542903669786 506.31673091702163 431.542903669786ZM421.6833347865305 361.50147238937956L421.6833347865305 361.50147238937956Q424.1963953996007 361.50147238937956 424.1963953996007 368.12190088617723Q424.1963953996007 374.71530722584515 423.4127528428368 380.552093165879L423.4127528428368 380.552093165879Q421.6833347865305 391.84735484612975 418.9540969164221 401.57533141285285L418.9540969164221 401.57533141285285Q411.9553582198074 428.0300232429138 411.9553582198074 432.5157013264583L411.9553582198074 432.5157013264583L411.9553582198074 461.10514356977234Q411.9553582198074 471.61676269325926 403.9567997093906 475.5079533199485L403.9567997093906 475.5079533199485Q400.28178633973965 477.26439353338463 396.87699454138664 478.8046564897825Q393.4722027430335 480.37194160331006 389.17567975939744 480.37194160331006L389.17567975939744 480.37194160331006Q381.01498830620193 480.37194160331006 381.01498830620193 461.5915423981085Q381.01498830620193 442.8111431929069 389.7701672162528 414.2217009495929Q398.52534612630353 385.6322587062789 408.06416759311816 370.63496149924737L408.06416759311816 370.63496149924737Q410.0097629064628 367.71656852923047 413.6847762761137 364.60902045930504Q417.3868118028945 361.50147238937956 421.6833347865305 361.50147238937956Z " fill="#8800ff" transform="matrix(0.5774122420793306,0,0,0.5774122420793307,0,65.93324593308058)"/><path d="M699.0620498113325 419.4835449339964L699.0620498113325 419.4835449339964Q702.7087586348508 416.82610286579416 705.6377641260812 412.9854201686844Q708.5667696173113 409.1447374715746 710.5840979026619 409.1447374715746Q712.6208235753717 409.1447374715746 712.6208235753717 415.21611971498555Q712.6208235753717 421.28750195839643 709.1874860128038 426.66057825687835Q705.7735458375951 432.0530519427194 700.1870982781626 435.6803633788786L700.1870982781626 435.6803633788786Q688.7426397362698 443.2259470615842 673.0889481374436 443.2259470615842L673.0889481374436 443.2259470615842Q654.0989059128452 443.2259470615842 643.6243167389094 433.7212272556054Q633.1497275649737 424.21650744962665 633.1497275649737 407.3213830598154L633.1497275649737 407.3213830598154Q633.1497275649737 386.50798642345785 643.1975742170083 367.80890500924653L643.1975742170083 367.80890500924653Q646.5533222301395 361.65993321639905 650.7431578997139 356.4808307915086L650.7431578997139 356.4808307915086Q647.5425889854557 352.71773764383533 645.64164502426 348.6054915236976Q643.7600984504234 344.4738480162007 643.7600984504234 342.3789301814135L643.7600984504234 342.3789301814135Q643.7600984504234 338.6158370337403 646.5533222301395 338.6158370337403L646.5533222301395 338.6158370337403Q648.5124583534127 338.7516187452543 651.034118710101 341.27327910194253L651.034118710101 341.27327910194253L655.3597360911893 345.46311477151687Q657.0279114040753 347.1312900844029 658.8512658158346 348.25633855123306L658.8512658158346 348.25633855123306Q672.6816030029016 336.52091919895315 688.6650501868334 336.52091919895315Q704.6484973707649 336.52091919895315 709.4008572737542 345.46311477151687L709.4008572737542 345.46311477151687Q711.0884299739995 348.799465397289 711.0884299739995 353.68760701179235L711.0884299739995 353.68760701179235Q711.0884299739995 361.09740898298395 704.6484973707649 366.12133230900133Q698.2279621548895 371.14525563501866 687.4042200084892 371.14525563501866Q676.5804778620889 371.14525563501866 665.000237608682 366.6838565424164L665.000237608682 366.6838565424164Q655.0687752808022 383.57898093222764 655.0687752808022 402.0258963107701L655.0687752808022 402.0258963107701Q655.0687752808022 427.57225546275794 675.4748267826179 427.57225546275794L675.4748267826179 427.57225546275794Q688.0443337913408 427.57225546275794 699.0620498113325 419.4835449339964ZM671.6923362475856 358.0326217802398L671.6923362475856 358.0326217802398Q678.81117740839 360.39910303805493 687.1908487475386 360.39910303805493Q695.5705200866872 360.39910303805493 695.5705200866872 355.7825248465795L695.5705200866872 355.7825248465795Q695.5705200866872 350.3512563860202 688.7426397362698 350.3512563860202L688.7426397362698 350.3512563860202Q679.373701641805 350.3512563860202 671.6923362475856 358.0326217802398ZM752.1333016259405 395.17861857299357L752.1333016259405 395.17861857299357Q752.1333016259405 390.1546952469762 746.1977010940435 390.1546952469762Q740.2621005621467 390.1546952469762 734.5398712912003 399.2908646931313Q728.8176420202539 408.44643152664554 727.4210301303957 417.9317539452652L727.4210301303957 417.9317539452652Q727.6925935534236 421.15172024688246 727.9835543638108 424.3716865484998Q728.2551177868387 427.57225546275794 728.2551177868387 430.6564400528613L728.2551177868387 430.6564400528613Q728.2551177868387 438.0468446366937 723.3669761723353 440.70428670489594L723.3669761723353 440.70428670489594Q721.1362766260341 441.96511688324006 719.1189483406837 443.0707679627111Q717.082222667974 444.1958164295412 714.4247805997717 444.1958164295412Q711.7867359189286 444.1958164295412 709.7500102462188 440.6266971554594Q707.7326819608683 437.0769752687367 707.7326819608683 429.5313915860311L707.7326819608683 429.5313915860311Q707.7326819608683 408.44643152664554 710.7974691636124 392.94791902669243L710.7974691636124 392.94791902669243Q715.5498290666018 368.9145560887175 729.6517296766968 341.54484252497053L729.6517296766968 341.54484252497053Q731.61086579997 337.7817493772973 735.3739589476432 337.8399415393747Q739.1564494826756 337.91753108881124 741.5229307404908 343.0772361263426Q743.908809385665 348.25633855123306 743.8312198362285 351.7478682758783Q743.7536302867919 355.2393980005236 742.7061713693982 358.51755646421833Q741.6587124520047 361.795714927913 740.0681266885553 364.93809168009375Q738.4581435377465 368.08046843227453 736.4214178650368 371.3586268959692Q734.4040895796862 374.6367853596639 732.444953456413 378.4192758946963L732.444953456413 378.4192758946963L730.3500356216259 388.467122546731Q735.8007014695444 379.3891452626533 745.014460465136 376.3243580599092L745.014460465136 376.3243580599092Q748.3702084782673 375.199309593079 752.4242624363276 375.199309593079L752.4242624363276 375.199309593079Q761.9095848549472 375.199309593079 766.7977264694506 379.4667348120899Q771.685868083954 383.7147626437416 771.685868083954 391.47371758739774Q771.685868083954 399.2326725310539 769.6685397986033 407.1856013483014Q767.6512115132527 415.13853016554896 766.7395343073732 418.5718677281168Q765.8278571014936 421.9858079033255 765.8278571014936 424.21650744962665Q765.8278571014936 426.46660438328695 767.3602507028656 426.46660438328695L767.3602507028656 426.46660438328695Q769.4551685376529 426.46660438328695 772.5393531277562 423.8091623150847Q775.6041403305003 421.15172024688246 778.6689275332445 418.00934349470174Q781.7531121233478 414.866966742521 784.3329646421136 412.2095246743188Q786.9128171608792 409.5520826061165 787.9020839161952 409.5520826061165L787.9020839161952 409.5520826061165Q789.8418226521093 409.5520826061165 789.8418226521093 414.3044425091059L789.8418226521093 414.3044425091059Q789.8418226521093 424.0807257381127 780.2207185219758 433.15870302219037L780.2207185219758 433.15870302219037Q764.0045026897344 442.66342282816913 759.5431035971321 442.66342282816913L759.5431035971321 442.66342282816913Q759.116361075231 442.66342282816913 758.9805793637171 442.52764111665516L758.9805793637171 442.52764111665516Q747.8076842448522 442.52764111665516 747.8076842448522 424.6432499715278L747.8076842448522 424.6432499715278Q747.8076842448522 416.9618845773082 749.2818856841469 410.5413493614327Q750.7366897360824 404.12081414555723 751.4349956810114 401.1724112669679Q752.1333016259405 398.24340577573776 752.1333016259405 395.17861857299357ZM868.6146127175783 409.1447374715746L868.6146127175783 409.1447374715746Q871.1362730742666 409.1447374715746 871.1362730742666 415.56527268745003L871.1362730742666 415.56527268745003Q871.1362730742666 419.0568024120953 868.2072675830364 424.02253357603524Q865.258864704447 428.96886735261603 860.5840943508941 433.10051086011293Q855.9093239973414 437.2127569802507 850.1870947263949 439.87019904845295Q844.4648654554486 442.52764111665516 839.0141996075301 442.52764111665516L839.0141996075301 442.52764111665516Q831.6043976363385 442.52764111665516 829.1021346670094 429.5313915860311L829.1021346670094 429.5313915860311Q825.4554258434911 435.54458166736464 819.5974148610306 439.38526436447444Q813.7394038785702 443.2259470615842 803.885531100127 443.2259470615842Q794.0316583216837 443.2259470615842 788.0378656277093 437.0769752687367Q782.0246755463758 430.9280034758892 782.1604572578898 422.1215896148395L782.1604572578898 422.1215896148395Q782.1604572578898 398.3791874872517 797.94993056823 384.7040293990578L797.94993056823 384.7040293990578Q804.6614265944926 378.9818001281114 810.4418480275164 377.15844571635216Q816.2416668478993 375.335091304593 822.6622020637748 375.335091304593Q829.1021346670094 375.335091304593 833.1367912377106 377.5851882382533L833.1367912377106 377.5851882382533Q835.0959273609838 373.53113428019293 837.617587717672 373.53113428019293L837.617587717672 373.53113428019293Q842.5057293321754 373.53113428019293 846.9089362627002 377.7791621118447Q851.2927458058659 382.0465873308556 851.2927458058659 385.8096804785288L851.2927458058659 385.8096804785288Q849.3530070699519 390.4262586700042 845.5705165349195 396.8467938858796L845.5705165349195 396.8467938858796Q844.4648654554486 403.2673291017551 844.4648654554486 414.866966742521Q844.4648654554486 426.46660438328695 847.3938709466787 426.46660438328695L847.3938709466787 426.46660438328695Q851.021182382838 426.46660438328695 864.987301281419 411.9379612512908L864.987301281419 411.9379612512908Q867.5089616381073 409.1447374715746 868.6146127175783 409.1447374715746ZM802.7022904712194 417.52440881072323L802.7022904712194 417.52440881072323Q802.7022904712194 428.27056140768696 810.6552192884669 428.27056140768696L810.6552192884669 428.27056140768696Q819.1706723391295 428.13477969617304 824.7571198985619 419.1925841236093L824.7571198985619 419.1925841236093Q826.7162560218351 416.12779692086514 827.9770862001793 411.6470004409037L827.9770862001793 411.6470004409037Q827.9770862001793 396.0127062294366 830.7703099798955 384.83981111057176L830.7703099798955 384.83981111057176Q819.4616331495166 387.0705106568729 811.0819618103679 395.7411428064086Q802.7022904712194 404.39237756858523 802.7022904712194 417.52440881072323ZM895.2860203363963 442.52764111665516L895.2860203363963 442.52764111665516Q875.3261087438408 442.66342282816913 868.0520884841632 427.57225546275794L868.0520884841632 427.57225546275794Q865.5498255148341 422.2767687137126 865.5498255148341 414.24625034702854Q865.5498255148341 406.2157319803444 866.9464374046922 397.1377546962667L866.9464374046922 397.1377546962667Q869.7396611844084 378.9818001281114 877.692590001656 363.6190693396722L877.692590001656 363.6190693396722Q881.7466439597163 355.7825248465795 886.7705672857336 350.1960772871471L886.7705672857336 350.1960772871471Q897.8076806930845 337.91753108881124 911.3470570697644 338.0533128003253L911.3470570697644 338.0533128003253Q917.360247151098 338.0533128003253 920.7741873263067 341.33147126401997Q924.2075248888744 344.60962972771466 924.2075248888744 350.7586015205622Q924.2075248888744 356.9075733134096 920.5802134527153 363.1147372683346Q916.9335046291968 369.34129861061865 911.2888649076871 375.97520508744464Q905.624827798818 382.6091115642706 898.7775500610416 389.8637344365891Q891.9496697106241 397.1377546962667 885.3739553958754 405.65320774692935L885.3739553958754 405.65320774692935L885.3739553958754 411.2396553063618Q885.3739553958754 419.0568024120953 888.7297034090068 422.6841138482546Q892.0854514221381 426.3114252844138 896.5468505147404 426.3114252844138L896.5468505147404 426.3114252844138Q908.5538332900483 426.3114252844138 917.7869896729991 414.44022422061994L917.7869896729991 414.44022422061994Q921.5500828206723 409.5520826061165 923.5092189439455 409.5520826061165L923.5092189439455 409.5520826061165Q925.4683550672187 409.5520826061165 925.4683550672187 414.3044425091059Q925.4683550672187 419.0568024120953 922.8691051610939 424.02253357603524Q920.2892526423282 428.96886735261603 916.0994169727538 433.10051086011293Q911.9095813031795 437.2127569802507 906.458915455261 439.87019904845295Q901.0276469947017 442.52764111665516 895.2860203363963 442.52764111665516ZM902.8316040191017 367.5179441988594Q905.7606095103321 363.8906327627002 907.4481822105772 360.96162727147004Q909.1163575234633 358.0326217802398 909.1163575234633 354.89024502805904Q909.1163575234633 351.7478682758783 906.8856579771622 351.7478682758783L906.8856579771622 351.7478682758783Q901.9975163626588 351.7478682758783 896.0619158307619 361.795714927913Q890.1263152988649 371.84356157994773 887.1973098076347 388.19555912370305L887.1973098076347 388.19555912370305Q891.9496697106241 380.9215388640254 895.9261341192479 376.033397249522Q899.9025985278716 371.14525563501866 902.8316040191017 367.5179441988594ZM948.3572721510042 442.52764111665516L948.3572721510042 442.52764111665516Q928.3973605584489 442.66342282816913 921.1233402987713 427.57225546275794L921.1233402987713 427.57225546275794Q918.6210773294421 422.2767687137126 918.6210773294421 414.24625034702854Q918.6210773294421 406.2157319803444 920.0176892193002 397.1377546962667L920.0176892193002 397.1377546962667Q922.8109129990164 378.9818001281114 930.763841816264 363.6190693396722L930.763841816264 363.6190693396722Q934.8178957743243 355.7825248465795 939.8418191003417 350.1960772871471L939.8418191003417 350.1960772871471Q950.8789325076924 337.91753108881124 964.4183088843723 338.0533128003253L964.4183088843723 338.0533128003253Q970.4314989657059 338.0533128003253 973.8454391409147 341.33147126401997Q977.2787767034825 344.60962972771466 977.2787767034825 350.7586015205622Q977.2787767034825 356.9075733134096 973.6514652673233 363.1147372683346Q970.0047564438049 369.34129861061865 964.360116722295 375.97520508744464Q958.6960796134261 382.6091115642706 951.8488018756494 389.8637344365891Q945.0209215252321 397.1377546962667 938.4452072104835 405.65320774692935L938.4452072104835 405.65320774692935L938.4452072104835 411.2396553063618Q938.4452072104835 419.0568024120953 941.8009552236148 422.6841138482546Q945.156703236746 426.3114252844138 949.6181023293483 426.3114252844138L949.6181023293483 426.3114252844138Q961.6250851046563 426.3114252844138 970.858241487607 414.44022422061994L970.858241487607 414.44022422061994Q974.6213346352803 409.5520826061165 976.5804707585535 409.5520826061165L976.5804707585535 409.5520826061165Q978.5396068818267 409.5520826061165 978.5396068818267 414.3044425091059Q978.5396068818267 419.0568024120953 975.9403569757018 424.02253357603524Q973.3605044569362 428.96886735261603 969.1706687873619 433.10051086011293Q964.9808331177875 437.2127569802507 959.5301672698691 439.87019904845295Q954.0988988093098 442.52764111665516 948.3572721510042 442.52764111665516ZM955.9028558337099 367.5179441988594Q958.83186132494 363.8906327627002 960.5194340251852 360.96162727147004Q962.1876093380713 358.0326217802398 962.1876093380713 354.89024502805904Q962.1876093380713 351.7478682758783 959.9569097917703 351.7478682758783L959.9569097917703 351.7478682758783Q955.0687681772669 351.7478682758783 949.1331676453698 361.795714927913Q943.1975671134729 371.84356157994773 940.2685616222427 388.19555912370305L940.2685616222427 388.19555912370305Q945.0209215252321 380.9215388640254 948.9973859338559 376.033397249522Q952.9738503424795 371.14525563501866 955.9028558337099 367.5179441988594ZM987.0550599324893 442.52764111665516L987.0550599324893 442.52764111665516Q973.0889410339082 442.52764111665516 973.0889410339082 416.3993603438931L973.0889410339082 416.3993603438931Q973.0889410339082 402.1616780222841 976.5804707585535 390.56204038151816L976.5804707585535 390.56204038151816Q982.0311366064719 372.6970466237499 988.8590169568893 372.6970466237499L988.8590169568893 372.6970466237499Q992.9130709149496 372.6970466237499 995.2989495601239 378.1283150843092L995.2989495601239 378.1283150843092Q997.2386882960379 382.3181507538835 997.1029065845239 386.3722047119438L997.1029065845239 386.3722047119438Q997.1029065845239 391.95865227137625 993.7471585713927 406.06055288147127L993.7471585713927 406.06055288147127Q990.5465896571344 418.3584964671663 990.5465896571344 421.28750195839643Q990.5465896571344 424.21650744962665 992.0013937090699 425.3415559164568Q993.4755951483647 426.46660438328695 995.4929234337152 426.46660438328695Q997.5296491064249 426.46660438328695 1000.5944363091692 423.8091623150847Q1003.6786208992725 421.15172024688246 1006.7434081020166 418.00934349470174Q1009.8081953047609 414.866966742521 1012.4074452108856 412.2095246743188Q1014.9872977296513 409.5520826061165 1015.9571670976082 409.5520826061165L1015.9571670976082 409.5520826061165Q1017.9163032208816 409.5520826061165 1017.9163032208816 414.3044425091059L1017.9163032208816 414.3044425091059Q1017.9163032208816 424.0807257381127 1008.0624304424382 433.37207428314093Q998.2279550513541 442.66342282816913 987.0550599324893 442.52764111665516ZM992.7772892034355 361.36897240601195L992.7772892034355 361.36897240601195Q989.0141960557625 355.7825248465795 989.0141960557625 349.36198963070404Q989.0141960557625 342.9414544148286 991.031524341113 338.6740291958177Q993.0488526264636 334.426001364166 994.8722070382228 332.38927569145625Q996.6955614499819 330.3719474061057 999.0620427077971 330.3719474061057L999.0620427077971 330.3719474061057Q1002.9803149543435 330.3719474061057 1006.1808838686017 336.1717662264886Q1009.4008501702189 341.9715850468716 1009.4008501702189 345.8704599060588L1009.4008501702189 345.8704599060588Q1009.4008501702189 353.1444801657364 1004.299337294765 357.2567262858742Q999.1978244193111 361.36897240601195 992.7772892034355 361.36897240601195ZM1042.7837538152994 374.4428114860725Q1052.1332945224053 374.365221936636 1056.7498727138804 377.9343412107178Q1061.3470535179968 381.48406309744047 1061.3470535179968 388.11796957426645Q1061.3470535179968 394.7518760510925 1057.3705891093732 399.4266464046453Q1053.3941247007492 404.12081414555723 1047.671895429803 406.06055288147127L1047.671895429803 406.06055288147127Q1051.706552000504 410.2503885510456 1055.0041078515578 414.595403319493Q1058.2822663152529 418.9210207005813 1058.2822663152529 423.67338060357076L1058.2822663152529 423.67338060357076Q1058.2822663152529 433.0229213106764 1050.872464344061 438.1244341861303Q1043.4820597602284 443.2259470615842 1030.2724389686541 443.2259470615842Q1017.0822155644386 443.2259470615842 1010.5065012496899 437.9886524746163Q1003.9501843223005 432.7513578876484 1003.9501843223005 426.1174514108224Q1003.9501843223005 419.4835449339964 1007.2283427859951 414.03287908607797Q1010.5065012496899 408.5822132381595 1014.2889917847223 408.5822132381595L1014.2889917847223 408.5822132381595Q1016.5196913310234 408.5822132381595 1017.4895606989804 410.19219638896817Q1018.4788274542966 411.80217953977683 1021.1362695224988 419.4835449339964L1021.1362695224988 419.4835449339964Q1022.1061388904558 422.2767687137126 1024.3368384367573 424.7790316830417L1024.3368384367573 424.7790316830417Q1029.5159408616473 430.5012609539881 1040.6888359805125 430.5012609539881L1040.6888359805125 430.5012609539881Q1039.0012632802673 425.2057742049428 1035.2963622946713 421.36509150783303Q1031.6108586964347 417.52440881072323 1027.964149872916 413.897097374564Q1024.3368384367573 410.2503885510456 1021.5436146570408 406.13814243090786Q1018.7503908773245 402.0258963107701 1018.7503908773245 396.4394487513377L1018.7503908773245 396.4394487513377Q1018.7503908773245 386.3722047119438 1026.2959745600301 380.0874512075824L1026.2959745600301 380.0874512075824Q1033.4148157208347 374.50100364814995 1042.7837538152994 374.4428114860725ZM1042.2212295818845 400.33832361052487L1042.2212295818845 400.33832361052487Q1047.8076771413166 394.3445309165505 1047.8076771413166 390.69782209303213L1047.8076771413166 390.69782209303213Q1047.8076771413166 389.0296467801461 1046.6244365124094 387.71062443972454Q1045.4217984961424 386.3722047119438 1043.1910989498415 386.3722047119438Q1040.9603994035401 386.3722047119438 1038.94307111819 386.9347289453589Q1036.90634544548 387.497253178774 1035.645515267136 387.768816601802L1035.645515267136 387.768816601802Q1035.645515267136 393.0837007382064 1042.2212295818845 400.33832361052487ZM1218.3301094155195 409.1447374715746L1218.3301094155195 409.1447374715746Q1220.6965906733349 409.1447374715746 1220.6965906733349 415.56527268745003L1220.6965906733349 415.56527268745003Q1220.6965906733349 419.0568024120953 1217.7675851821045 424.02253357603524Q1214.8385796908742 428.96886735261603 1210.1638093373217 433.10051086011293Q1205.4890389837688 437.2127569802507 1199.7474123254633 439.87019904845295Q1194.0251830545167 442.52764111665516 1188.8654780169854 442.52764111665516Q1183.686375592095 442.52764111665516 1180.7573701008646 440.56850499338196Q1177.8283646096347 438.6093688701088 1176.1601892967483 435.25362085697753L1176.1601892967483 435.25362085697753Q1173.774310651574 430.5012609539881 1172.2419170502021 417.1752558382587Q1170.7095234488302 403.8298533351701 1169.1771298474582 398.53436658612486L1169.1771298474582 398.53436658612486Q1165.5304210239397 397.8360606411958 1162.81478679366 395.6635532569721Q1160.0991525633804 393.4910458727484 1160.0991525633804 390.3486691205676Q1160.0991525633804 387.20629236838687 1162.950568505174 385.8096804785288Q1165.8213818343265 384.4130685886707 1169.5262828199225 384.4130685886707Q1173.2117864181591 384.4130685886707 1176.1601892967483 386.23642300042985L1176.1601892967483 386.23642300042985Q1180.0590641559356 383.0164566988126 1182.5031349631872 378.63264715564685Q1184.9472057704393 374.229440225122 1184.9472057704393 366.7614460918529Q1184.9472057704393 359.2740545712248 1179.9232824444216 354.8126554786225Q1174.8993591184044 350.3512563860202 1165.181268051475 350.3512563860202Q1155.4825743719048 350.3512563860202 1150.3228693343735 351.8836499873923Q1145.143766909483 353.4160435887644 1141.4388659238875 355.2393980005236Q1137.7533623256504 357.04335502492364 1134.882548996498 358.5757486262957Q1132.011735667345 360.12753961502693 1129.509472698016 360.12753961502693Q1126.9878123413278 360.12753961502693 1126.9878123413278 358.51755646421833Q1126.9878123413278 356.9075733134096 1129.64525440953 353.28026187725044Q1132.3026964777323 349.65295044109115 1137.4624015152635 346.0062416175728L1137.4624015152635 346.0062416175728Q1150.4586510458876 336.92826433349506 1166.7912512022835 337.00585388293166Q1183.1432487460393 337.08344343236826 1193.7536196314886 343.21301783785657L1193.7536196314886 343.21301783785657Q1206.1873449286977 350.4870380975342 1206.1873449286977 365.0156812295303L1206.1873449286977 365.0156812295303Q1206.3231266402117 377.0226640048382 1199.9025914243362 384.97559282208573Q1193.4626588211017 392.94791902669243 1183.9773364024823 396.4394487513377L1183.9773364024823 396.4394487513377Q1186.0722542372691 401.03662955545394 1187.3912765776909 406.3515136918584Q1188.7296963054714 411.6470004409037 1189.9711290964565 416.12779692086514Q1191.2319592748004 420.5891960134674 1192.8419424256094 423.5182015046976Q1194.451925576418 426.46660438328695 1196.7602146721556 426.46660438328695Q1199.0491063805339 426.46660438328695 1202.3466622315877 423.73157276564814Q1205.6248206952828 421.0159385353685 1208.8253896095407 417.7959722337512Q1212.045355911158 414.595403319493 1214.6252084299235 411.86037170185426Q1217.2050609486896 409.1447374715746 1218.3301094155195 409.1447374715746ZM1157.577492206692 358.8667094366828L1157.577492206692 358.8667094366828Q1159.4008466184514 358.8667094366828 1159.4008466184514 363.6190693396722Q1159.4008466184514 368.35203185530247 1158.838322385036 372.5418675248768L1158.838322385036 372.5418675248768Q1157.577492206692 380.6499754409974 1155.6183560834188 387.63303489028795L1155.6183560834188 387.63303489028795Q1150.5944327574016 406.62307711488637 1150.5944327574016 409.8430434165037L1150.5944327574016 409.8430434165037L1150.5944327574016 430.3654792424742Q1150.5944327574016 437.91106292517975 1144.872203486455 440.70428670489594L1144.872203486455 440.70428670489594Q1142.2147614182531 441.96511688324006 1139.770690611001 443.0707679627111Q1137.3266198037495 444.1958164295412 1134.2618326010052 444.1958164295412L1134.2618326010052 444.1958164295412Q1128.3844242311857 444.1958164295412 1128.3844242311857 430.71463221493866Q1128.3844242311857 417.2334480003361 1134.6691777355472 396.71101217436564Q1140.9539312399088 376.18857634839515 1147.8012089776853 365.42302636407226L1147.8012089776853 365.42302636407226Q1149.1978208675437 363.3281085292851 1151.8552629357455 361.09740898298395Q1154.5127050039478 358.8667094366828 1157.577492206692 358.8667094366828ZM1246.2623472126816 426.8739495178289L1246.2623472126816 426.8739495178289Q1257.1636789085187 426.8739495178289 1267.3473072720672 418.2227147556523L1267.3473072720672 418.2227147556523Q1271.1297978070997 415.002748454035 1273.4962790649147 412.28711422375534Q1275.86276032273 409.5520826061165 1277.123590501074 409.5520826061165L1277.123590501074 409.5520826061165Q1279.0827266243473 409.5520826061165 1279.0827266243473 413.4703548526629Q1279.0827266243473 417.38862709920926 1276.98780878956 422.1991791642761Q1274.892890954773 427.00973122934283 1270.0047493402694 431.6263094208183L1270.0047493402694 431.6263094208183Q1257.9977665649617 442.9349862511971 1237.0485882170901 442.9349862511971L1237.0485882170901 442.9349862511971Q1220.4250272503068 442.9349862511971 1214.4118371689733 430.9280034758892L1214.4118371689733 430.9280034758892Q1212.316919334186 426.7381678063149 1212.316919334186 418.9210207005813Q1212.316919334186 411.10387359484776 1215.4011039242896 402.6466127062626Q1218.4658911270335 394.1893518176774 1223.5674040024874 388.0597774121891Q1228.6689168779412 381.91080561934155 1235.3610155168449 378.4774680567737Q1242.0725115431073 375.063527881565 1249.6762873878906 375.063527881565Q1257.2994606200327 375.063527881565 1261.4117067401703 378.82662102923825Q1265.5433502476671 382.6091115642706 1265.5433502476671 388.60290425824496Q1265.5433502476671 394.61609433957847 1262.5367552070006 398.45677703668827Q1259.5301601663336 402.29745973379806 1254.7778002633445 404.87731225256374Q1250.0254403603549 407.4571647713294 1244.2450189273313 409.49389044403915Q1238.445200106948 411.5112187293897 1232.858752547516 414.03287908607797L1232.858752547516 414.03287908607797L1232.858752547516 417.52440881072323Q1232.9945342590295 422.54833213674056 1237.0485882170901 424.6432499715278Q1241.1026421751503 426.7381678063149 1246.2623472126816 426.8739495178289ZM1243.8958659548666 387.497253178774L1243.8958659548666 387.497253178774Q1236.6218456951888 387.497253178774 1233.828621915473 404.39237756858523L1233.828621915473 404.39237756858523Q1236.7576274067028 402.43324144531204 1239.3568773128277 400.90084784393997Q1241.9367298315933 399.36845424256785 1243.8958659548666 397.97184235270976L1243.8958659548666 397.97184235270976Q1248.0857016244408 394.8876577626064 1248.2214833359549 390.98878290341924L1248.2214833359549 390.98878290341924Q1248.2214833359549 387.497253178774 1243.8958659548666 387.497253178774ZM1325.5976615115655 378.5550576062103L1325.5976615115655 378.5550576062103Q1327.53740024748 372.4060858133628 1331.882415015927 372.4060858133628L1331.882415015927 372.4060858133628Q1335.7812898751145 372.5418675248768 1339.2728195997597 377.9343412107178Q1342.764349324405 383.3074175091997 1342.764349324405 386.23642300042985L1342.764349324405 386.23642300042985Q1342.492785901377 391.95865227137625 1339.2728195997597 404.46996711802177Q1336.0722506855013 416.9618845773082 1330.1948423156823 436.94119355722273L1330.1948423156823 436.94119355722273Q1339.4086013112737 429.8029550090591 1348.3507968838371 418.3584964671663L1348.3507968838371 418.3584964671663Q1351.4349814739408 414.44022422061994 1353.5880914708055 411.99615341336823Q1355.760598855029 409.5520826061165 1357.157210744887 409.5520826061165L1357.157210744887 409.5520826061165Q1359.1163468681602 409.5520826061165 1359.1163468681602 414.03287908607797L1359.1163468681602 414.03287908607797Q1359.1163468681602 422.81989555976855 1349.2624740897168 434.55531491204846Q1339.4086013112737 446.29073426432836 1325.1709189896646 452.8470511917178L1325.1709189896646 452.8470511917178Q1323.5027436767787 458.43349875115024 1321.5436075535054 463.4768194645267Q1319.584471430232 468.5007427905441 1316.5196842274881 472.2638359382173L1316.5196842274881 472.2638359382173Q1309.8081882012257 480.3719438543379 1296.1136327256727 480.3719438543379L1296.1136327256727 480.3719438543379Q1286.8998737300808 480.3719438543379 1280.4017489647686 475.0570597179335Q1273.923021586816 469.76157296888823 1273.923021586816 461.78924676428153L1273.923021586816 461.78924676428153Q1273.923021586816 457.4636293831932 1276.7744375286093 454.941969026505Q1279.6452508577622 452.43970605717584 1284.6691741837794 450.9073124558038Q1289.693097509797 449.35552146707255 1296.462785698137 448.24987038760156Q1303.251871273836 447.1248219207714 1310.9332366680555 445.4566466078853L1310.9332366680555 445.4566466078853Q1311.631542612985 443.0707679627111 1312.1164772969632 440.78187625433253Q1312.6014119809415 438.4735871585948 1313.163936214357 436.0877085134206L1313.163936214357 436.0877085134206Q1305.4825708201374 443.2259470615842 1294.3678678633496 443.2259470615842Q1283.2725622939215 443.2259470615842 1277.259372212588 437.0769752687367Q1271.2655795186138 430.9280034758892 1271.4013612301278 422.1215896148395L1271.4013612301278 422.1215896148395Q1271.4013612301278 398.3791874872517 1287.1908345404677 384.7040293990578L1287.1908345404677 384.7040293990578Q1298.0727688489455 375.335091304593 1309.8081882012257 375.335091304593L1309.8081882012257 375.335091304593Q1313.8622421592859 375.335091304593 1318.5370125128388 376.3243580599092Q1323.2117828663913 377.2942274278662 1325.5976615115655 378.5550576062103ZM1291.923797056098 417.52440881072323L1291.923797056098 417.52440881072323Q1291.923797056098 428.27056140768696 1299.8961232607048 428.27056140768696L1299.8961232607048 428.27056140768696Q1304.357522353307 428.27056140768696 1308.9741005447827 424.9148133945557Q1313.571281348899 421.57846276878354 1316.3645051286148 414.03287908607797L1316.3645051286148 414.03287908607797Q1318.4594229634022 404.25659585707126 1320.7677120591397 396.0127062294366Q1323.0760011548773 387.768816601802 1323.9100888113207 384.5682476875438L1323.9100888113207 384.5682476875438Q1312.1746694590406 386.1006412889159 1302.0492332575695 395.0428368614796Q1291.923797056098 403.96563504668416 1291.923797056098 417.52440881072323ZM1306.588221899608 458.29771703963627L1306.588221899608 458.29771703963627Q1301.5642985735908 459.2869837949524 1297.8012054259175 459.83011064100833Q1294.0187148908853 460.39263487442344 1291.5746440836333 460.8193773963245Q1289.1305732763822 461.2267225308664 1287.9473326474745 461.78924676428153Q1286.7640920185668 462.3517709976966 1286.7640920185668 463.6126011760407L1286.7640920185668 463.6126011760407Q1286.7640920185668 466.1148641453698 1289.9064687707473 467.93821855712895Q1293.0488455229283 469.76157296888823 1296.1136327256727 469.6063938700151L1296.1136327256727 469.6063938700151Q1301.4285168620768 469.6063938700151 1306.588221899608 458.29771703963627ZM1437.86973954627 409.1447374715746L1437.86973954627 409.1447374715746Q1440.3913999029583 409.1447374715746 1440.3913999029583 415.56527268745003L1440.3913999029583 415.56527268745003Q1440.3913999029583 419.0568024120953 1437.462394411728 424.02253357603524Q1434.533388920498 428.96886735261603 1429.8392211795863 433.10051086011293Q1425.1644508260333 437.2127569802507 1419.4422215550867 439.87019904845295Q1413.7199922841405 442.52764111665516 1408.269326436222 442.52764111665516L1408.269326436222 442.52764111665516Q1400.8595244650305 442.52764111665516 1398.357261495701 429.5313915860311L1398.357261495701 429.5313915860311Q1394.7299500595418 435.54458166736464 1388.8525416897223 439.38526436447444Q1382.9945307072621 443.2259470615842 1373.1406579288187 443.2259470615842Q1363.3061825377345 443.2259470615842 1357.292992456401 437.0769752687367Q1351.2798023750674 430.9280034758892 1351.4349814739408 422.1215896148395L1351.4349814739408 422.1215896148395Q1351.4349814739408 398.3791874872517 1367.2050573969218 384.7040293990578L1367.2050573969218 384.7040293990578Q1373.9165534231843 378.9818001281114 1379.716372243567 377.15844571635216Q1385.496793676591 375.335091304593 1391.9367262798255 375.335091304593Q1398.357261495701 375.335091304593 1402.4113154537613 377.5851882382533L1402.4113154537613 377.5851882382533Q1404.3510541896758 373.53113428019293 1406.8727145463636 373.53113428019293L1406.8727145463636 373.53113428019293Q1411.7608561608672 373.53113428019293 1416.164063091392 377.7791621118447Q1420.567270021917 382.0465873308556 1420.567270021917 385.8096804785288L1420.567270021917 385.8096804785288Q1418.6081338986437 390.4262586700042 1414.825643363611 396.8467938858796L1414.825643363611 396.8467938858796Q1413.7199922841405 403.2673291017551 1413.7199922841405 414.866966742521Q1413.7199922841405 426.46660438328695 1416.6489977753704 426.46660438328695L1416.6489977753704 426.46660438328695Q1420.2763092115297 426.46660438328695 1434.2424281101107 411.9379612512908L1434.2424281101107 411.9379612512908Q1436.764088466799 409.1447374715746 1437.86973954627 409.1447374715746ZM1371.957417299911 417.52440881072323L1371.957417299911 417.52440881072323Q1371.957417299911 428.27056140768696 1379.910346117159 428.27056140768696L1379.910346117159 428.27056140768696Q1388.4451965551807 428.13477969617304 1394.0316441146128 419.1925841236093L1394.0316441146128 419.1925841236093Q1395.9713828505269 416.12779692086514 1397.2322130288712 411.6470004409037L1397.2322130288712 411.6470004409037Q1397.2322130288712 396.0127062294366 1400.025436808587 384.83981111057176L1400.025436808587 384.83981111057176Q1388.7167599782083 387.0705106568729 1380.3370886390599 395.7411428064086Q1371.957417299911 404.39237756858523 1371.957417299911 417.52440881072323ZM1451.9910375437244 372.4060858133628L1451.9910375437244 372.4060858133628Q1457.0149608697416 372.4060858133628 1461.4763599623438 382.0465873308556L1461.4763599623438 382.0465873308556Q1468.0520742770927 375.199309593079 1477.7507679566625 375.199309593079Q1487.4494616362326 375.199309593079 1492.3376032507363 379.4667348120899Q1497.2257448652394 383.7147626437416 1497.2257448652394 391.47371758739774Q1497.2257448652394 399.2326725310539 1495.2084165798888 407.1856013483014Q1493.1910882945385 415.13853016554896 1492.279411088659 418.5718677281168Q1491.3677338827792 421.9858079033255 1491.3677338827792 424.21650744962665Q1491.3677338827792 426.46660438328695 1492.9001274841512 426.46660438328695L1492.9001274841512 426.46660438328695Q1494.9950453189385 426.46660438328695 1498.0792299090417 423.8091623150847Q1501.1440171117856 421.15172024688246 1504.20880431453 418.00934349470174Q1507.2929889046336 414.866966742521 1509.8728414233992 412.2095246743188Q1512.4526939421648 409.5520826061165 1513.4419606974807 409.5520826061165L1513.4419606974807 409.5520826061165Q1515.3816994333947 409.5520826061165 1515.3816994333947 414.3044425091059L1515.3816994333947 414.3044425091059Q1515.3816994333947 424.0807257381127 1505.7605953032612 433.15870302219037L1505.7605953032612 433.15870302219037Q1489.54437947102 442.66342282816913 1485.0829803784177 442.66342282816913L1485.0829803784177 442.66342282816913Q1484.6562378565168 442.66342282816913 1484.5204561450028 442.52764111665516L1484.5204561450028 442.52764111665516Q1473.3475610261376 442.52764111665516 1473.3475610261376 424.6432499715278L1473.3475610261376 424.6432499715278Q1473.3475610261376 416.9618845773082 1474.8217624654326 410.5413493614327Q1476.2765665173679 404.12081414555723 1476.9748724622968 401.1724112669679Q1477.6731784072263 398.24340577573776 1477.6731784072263 395.17861857299357L1477.6731784072263 395.17861857299357Q1477.6731784072263 390.1546952469762 1471.8927569742023 390.1546952469762Q1466.0929381538194 390.1546952469762 1460.855643566851 398.72834045971626Q1455.6183489798836 407.3213830598154 1453.7949945681244 416.53514205540705L1453.7949945681244 416.53514205540705L1453.7949945681244 417.52440881072323Q1453.7949945681244 422.2767687137126 1455.269196007419 427.30069203972994Q1456.7240000593542 432.3246153657473 1456.7240000593542 434.2837514890205L1456.7240000593542 434.2837514890205Q1456.7240000593542 439.0361113920099 1444.8527989955605 443.63329219612615L1444.8527989955605 443.63329219612615Q1443.0488419711605 444.3315981410552 1441.6522300813026 444.3315981410552L1441.6522300813026 444.3315981410552Q1438.1607003566573 444.3315981410552 1436.8222806288763 440.70428670489594Q1435.503258288455 437.0769752687367 1435.503258288455 429.39560987451716L1435.503258288455 429.39560987451716Q1435.503258288455 409.5520826061165 1437.035651889827 400.765066132426L1437.035651889827 400.765066132426Q1439.1305697246144 387.63303489028795 1446.5403716958058 376.3243580599092L1446.5403716958058 376.3243580599092Q1449.0426346651348 372.4060858133628 1451.9910375437244 372.4060858133628Z " fill="#8800ff" transform="matrix(0.5774122420793306,0,0,0.5774122420793307,0,65.93324593308058)"/></g></svg>